<?xml version="1.0" encoding="utf-8"?>
<svg xmlns="http://www.w3.org/2000/svg" fill="none" height="32" viewBox="0 0 293 32" width="293">
<path d="M127.932 16.0331C127.932 12.6454 130.348 9.51904 133.879 9.51904C137.506 9.51904 139.83 12.1026 139.83 16.0331C139.83 19.5018 137.407 22.4736 133.879 22.4736C130.348 22.4736 127.932 19.7079 127.932 16.0331ZM124.423 16.0331C124.423 21.5039 128.613 25.4951 133.881 25.4951C135.125 25.5002 136.358 25.259 137.508 24.7852C138.658 24.3115 139.703 23.6147 140.582 22.7351C141.462 21.8554 142.159 20.8103 142.632 19.66C143.106 18.5097 143.347 17.277 143.341 16.0331C143.341 10.3913 139.306 6.51225 133.879 6.51225C128.604 6.51225 124.423 10.7501 124.423 16.0331ZM103.732 15.9834C103.732 21.5039 107.663 25.4013 113.194 25.4013C116.265 25.4013 118.781 24.1776 120.472 21.8516L120.564 21.7118L117.966 19.5459L117.879 19.7208C116.882 21.5296 115.318 22.4644 113.194 22.4644C109.58 22.4644 107.243 19.6398 107.243 15.9834C107.243 12.3436 109.84 9.53008 113.194 9.53008C115.202 9.53008 116.996 10.6489 117.857 12.156L117.949 12.3032L120.614 10.1888L120.5 10.0472C119.619 8.95916 118.505 8.08212 117.241 7.48034C115.977 6.87855 114.594 6.56726 113.194 6.56929C108.073 6.56929 103.732 10.4943 103.732 15.9834ZM236.575 17.4353V25.0424H239.98V17.4353L246.597 6.96492H242.847L238.278 14.2187L233.854 6.96676L229.971 6.96492L236.575 17.4353ZM178.742 9.69569H179.581C182.356 9.68833 183.563 10.7501 183.563 12.6657C183.563 14.5518 182.286 15.5786 179.581 15.5786C179.3 15.5773 179.019 15.557 178.74 15.5179L178.742 9.69569ZM175.334 6.96492V25.0406H178.74V18.3149C178.968 18.3462 179.296 18.3701 179.577 18.3701C183.944 18.3701 187.067 16.4361 187.067 12.6767C187.067 9.07372 184.461 6.96492 179.577 6.96492H175.334ZM152.525 15.286L158.14 25.4988L163.697 15.2787L165.934 25.0406H169.514L164.766 6.65026L158.202 18.8614L151.513 6.65026L147.014 25.0443H150.348L152.525 15.286ZM60.0106 17.6966L48.0405 6.65026V25.0461H51.3527V14.4359L63.3136 25.473V6.96308H60.0106V17.6966ZM36.7715 6.96492V25.0424H40.207V6.96676L36.7715 6.96492ZM21.2628 18.2818L23.5685 13.0797L25.7086 18.2836L21.2628 18.2818ZM32.3662 25.0406L23.5685 6.64474L14.7561 25.0406H18.2155L19.9453 21.1984H26.9175L28.5884 25.0406H32.3662ZM3.40426 14.6199L3.4061 9.69569L4.00966 9.69753C6.51961 9.69753 7.75802 10.3747 7.75802 12.1854C7.75802 14.0311 6.49385 14.6181 4.12927 14.6181L3.40426 14.6199ZM4.91133 17.3801C7.29431 17.3727 8.68177 17.9616 8.68177 19.8827C8.68177 21.5572 7.40839 22.2933 4.90397 22.3117H3.40426V17.3801H4.91133ZM8.70937 15.4056C10.1244 14.7745 11.1696 13.3888 11.1696 11.6628C11.1696 8.53456 8.68545 6.96676 4.33352 6.96676H0V25.0424H5.12478C9.75457 25.0424 12.1983 23.1747 12.1983 19.8422C12.1983 17.6359 10.8126 16.1104 8.71121 15.4075L8.70937 15.4056ZM85.7394 21.3438C85.237 22.032 84.1182 22.7312 82.9129 22.7312C81.2366 22.7312 80.184 21.686 80.184 20.1918C80.184 18.9221 81.1317 17.7629 82.1106 17.2476C82.1382 17.2347 82.1714 17.22 82.1916 17.2071L85.7394 21.3438ZM81.6892 11.05C81.6892 9.78033 82.5891 9.00747 83.7723 9.00747C84.961 9.00747 85.7504 9.76745 85.7504 10.8844C85.7504 12.1284 84.5065 13.1073 83.2552 13.7477C82.6167 13.1257 81.6892 12.1136 81.6892 11.05ZM89.0792 25.0645H93.0668C93.0668 25.0645 90.0104 21.6051 89.5411 21.0162C89.9754 20.5028 92.5589 16.484 92.5589 16.484L89.3534 16.4803L87.7525 18.8964L84.8837 15.6669C87.263 14.4156 88.7701 12.6454 88.7701 10.7446C88.7701 8.19966 86.5601 6.54169 83.787 6.54169C80.6532 6.54169 78.5629 8.38919 78.5629 10.9911C78.5629 12.8405 79.7148 14.3273 80.5134 15.2382C78.6088 16.2779 76.9233 17.8328 76.9233 20.4807C76.9233 23.3035 79.2235 25.4951 82.5357 25.4951C84.5304 25.4951 86.2178 24.794 87.5869 23.344L89.0792 25.0645ZM222.616 17.6929L210.65 6.64658V25.0424H213.96V14.4359L225.921 25.4712V6.96492H222.616V17.6929ZM195.15 18.2818L197.456 13.0779L199.596 18.2818H195.15ZM206.256 25.0406L197.456 6.64474L188.645 25.0406H192.103L193.838 21.1966H200.803L202.478 25.0406H206.256ZM292.258 16C292.258 24.8363 285.082 32 276.23 32C267.378 32 260.203 24.8363 260.203 15.9982C260.203 7.16366 267.376 0 276.23 0C277.099 0 277.951 0.0736064 278.785 0.206096L277.415 1.97447C277.033 1.94288 276.649 1.92631 276.265 1.92479C268.811 1.92479 262.77 7.82059 262.77 15.0928C262.77 22.3669 268.811 28.2608 276.265 28.2608C283.718 28.2608 289.763 22.3669 289.763 15.0928C289.763 9.49695 286.184 4.71995 281.136 2.80989L280.65 0.623808C287.352 2.53755 292.258 8.69649 292.258 16ZM281.874 16.7673L278.976 3.74468L270.878 14.2298L281.874 16.7673Z" fill="#262d3d"/>
</svg>