<?xml version="1.0" encoding="utf-8"?>
<svg xmlns="http://www.w3.org/2000/svg" fill="none" height="32" viewBox="0 0 27 32" width="27">
<path d="M25.2216 10.9099C25.036 11.0539 21.7589 12.9005 21.7589 17.0065C21.7589 21.7558 25.9288 23.4359 26.0537 23.4775C26.0345 23.58 25.3912 25.7786 23.855 28.0188C22.4853 29.9902 21.0548 31.9584 18.8786 31.9584C16.7024 31.9584 16.1423 30.6943 13.6301 30.6943C11.1819 30.6943 10.3114 32 8.32078 32C6.33018 32 4.94126 30.1758 3.34431 27.9356C1.49454 25.3049 0 21.2181 0 17.3393C0 11.1179 4.04518 7.81838 8.02635 7.81838C10.1418 7.81838 11.9051 9.20732 13.2332 9.20732C14.4974 9.20732 16.4687 7.73517 18.8754 7.73517C19.7875 7.73517 23.0646 7.81838 25.2216 10.9099ZM17.7329 5.10131C18.7282 3.92039 19.4322 2.28183 19.4322 0.643264C19.4322 0.416042 19.413 0.185619 19.3714 0C17.7521 0.0608061 15.8255 1.07851 14.6638 2.42584C13.7517 3.46275 12.9004 5.10131 12.9004 6.76228C12.9004 7.0119 12.942 7.26153 12.9612 7.34153C13.0636 7.36074 13.23 7.38314 13.3964 7.38314C14.8494 7.38314 16.6768 6.41024 17.7329 5.10131Z" fill="#262d3d"/>
</svg>