<?xml version="1.0" encoding="utf-8"?>
<svg xmlns="http://www.w3.org/2000/svg" id="Layer_2" viewBox="0 0 261.16 40">
  <defs>
    <style>.cls-1{fill:#262d3d;}</style>
  </defs>
  <g id="S">
    <g id="Samsung">
      <g id="g18">
        <path class="cls-1" d="m247.96,17.57v5.45h3.83v5.4c.01.48-.01,1-.1,1.42-.15,1.01-1.11,2.72-3.83,2.72s-3.64-1.72-3.8-2.72c-.07-.42-.1-.94-.1-1.42V11.35c0-.6.04-1.26.17-1.76.19-.91.99-2.7,3.71-2.7,2.86,0,3.57,1.89,3.73,2.7.11.54.11,1.44.11,1.44v2.07h9.4v-1.22s.04-1.28-.07-2.47c-.71-7-6.48-9.22-13.09-9.22s-12.28,2.24-13.11,9.22c-.07.64-.19,1.79-.19,2.47v15.7c0,.68.02,1.21.15,2.46.61,6.81,6.52,9.23,13.12,9.23s12.51-2.41,13.13-9.23c.11-1.25.12-1.78.14-2.46v-10h-13.21ZM183.12,1.19h-9.44v27.62c.01.48,0,1.02-.08,1.42-.2.93-.98,2.71-3.59,2.71s-3.38-1.78-3.56-2.71c-.09-.4-.11-.94-.09-1.42V1.19h-9.44v26.76c-.01.69.04,2.1.08,2.47.65,6.97,6.15,9.24,13.01,9.24s12.37-2.26,13.03-9.24c.05-.37.12-1.78.08-2.47V1.19Zm-86.76,0l-4.71,29.18-4.71-29.18h-15.23l-.81,37.34h9.33l.25-34.56,6.42,34.56h9.47l6.43-34.56.25,34.56h9.35l-.84-37.34h-15.21Zm-56.39,0l-6.92,37.34h10.09L48.35,3.96l5.09,34.56h10.02L56.57,1.19h-16.6Zm176.15,30.06l-8.79-30.06h-13.85v36.95h9.17l-.53-31.02,9.44,31.02h13.29V1.19h-9.23l.51,30.06Zm-84.78-20.34c-.17-.74-.12-1.52-.03-1.93.27-1.2,1.07-2.5,3.38-2.5,2.16,0,3.42,1.34,3.42,3.36v2.28h9.2v-2.6c0-8.04-7.21-9.31-12.43-9.31-6.58,0-11.95,2.17-12.93,8.22-.26,1.65-.32,3.11.09,4.98,1.6,7.55,14.74,9.74,16.65,14.51.34.9.24,2.06.07,2.74-.29,1.24-1.12,2.49-3.6,2.49-2.32,0-3.72-1.34-3.72-3.35v-3.58h-9.91v2.85c0,8.25,6.46,10.74,13.43,10.74s12.18-2.28,13.06-8.46c.42-3.19.1-5.27-.07-6.05-1.54-7.74-15.55-10.07-16.61-14.39m-121.42-.09c-.18-.75-.14-1.55-.04-1.96.26-1.19,1.06-2.52,3.42-2.52,2.18,0,3.47,1.36,3.47,3.39v2.31h9.31v-2.62C26.09,1.29,18.76,0,13.48,0,6.85,0,1.43,2.2.44,8.3c-.27,1.67-.32,3.15.07,5.03,1.62,7.63,14.89,9.84,16.82,14.67.36.9.25,2.05.07,2.76-.31,1.26-1.15,2.52-3.65,2.52-2.33,0-3.73-1.36-3.73-3.4v-3.59H0v2.85c0,8.35,6.56,10.86,13.57,10.86s12.29-2.3,13.19-8.55c.45-3.22.11-5.32-.04-6.11-1.58-7.84-15.74-10.16-16.8-14.53" id="path20"/>
      </g>
    </g>
  </g>
</svg>