<?xml version="1.0" encoding="utf-8"?>
<svg xmlns="http://www.w3.org/2000/svg" fill="none" height="40" viewBox="0 0 271 40" width="271">
<path d="M222.139 0C222.139 0 222.139 27.7791 222.139 27.7791C222.139 29.1516 222.856 29.9534 223.596 30.4583C224.389 30.9908 225.553 31.2574 227.121 31.2573C228.113 31.2573 229.424 30.9283 229.424 30.9283C229.424 30.9283 229.424 28.4371 229.424 28.4371C229.031 28.4615 228.682 28.4841 228.296 28.4841C225.961 28.4841 225.617 27.572 225.617 26.557C225.617 26.557 225.617 1.62507e-05 225.617 1.63935e-06L222.139 0ZM148.672 0.282021C146.05 0.282021 143.68 1.10436 141.998 2.58519C140.364 4.02964 139.459 6.02347 139.459 8.17861C139.46 10.5522 140.42 12.4069 142.421 13.866C144.185 15.1545 146.519 15.9864 148.766 16.7803C152.673 18.1697 156.334 19.4379 156.334 22.9847C156.334 24.5621 155.797 25.9144 154.783 26.839C153.667 27.8558 152.062 28.3431 149.941 28.3431C146.224 28.3431 143.517 26.2847 141.998 22.2797C141.998 22.2797 138.66 23.1727 138.66 23.1727C139.379 24.797 140.602 27.141 142.374 28.7192C144.316 30.4621 146.728 31.3043 149.753 31.3043C153.336 31.3043 156.055 30.3802 157.838 28.5311C159.686 26.6062 160.094 24.1428 160.094 22.4207C160.094 19.953 159.051 18.0474 156.945 16.5452C155.106 15.2263 152.727 14.3762 150.411 13.584C146.639 12.2939 143.039 11.0662 143.079 7.89659C143.092 6.41863 143.605 5.26813 144.536 4.46533C145.485 3.6498 146.838 3.24324 148.578 3.24324C150.406 3.24326 152.037 3.75427 153.279 4.74736C154.421 5.65182 155.252 6.99412 155.629 8.50764C155.629 8.50764 158.872 8.08461 158.872 8.08461C157.449 3.23377 153.972 0.282021 148.672 0.282021ZM0 0.705053V30.8813H3.47826V3.29025L3.57227 3.38425L11.8449 30.8813H14.5241L22.8437 3.38425L22.8907 3.29025V30.8813H26.369V0.705053H20.5875L13.208 24.9589V25.0529L13.161 24.9589L5.78143 0.705053H0ZM165.593 1.3161V8.55464H162.256V11.3278C162.256 11.3278 165.593 11.3279 165.593 11.3278C165.593 11.3278 165.593 26.8383 165.593 27.7791C165.593 29.1516 166.218 29.9534 166.957 30.4583C167.751 30.9908 168.912 31.2574 170.482 31.2573C171.475 31.2573 172.832 30.9283 172.832 30.9283C172.832 30.9283 172.832 28.4371 172.832 28.4371C172.446 28.4615 172.042 28.4841 171.657 28.4841C169.319 28.4841 169.072 27.572 169.072 26.557C169.072 26.557 169.072 11.3279 169.072 11.3279H172.832V8.55465H169.072V1.3161H165.593ZM40.47 8.13161C37.5412 8.13161 35.0588 9.31171 33.3255 11.5159C31.7169 13.5729 30.8343 16.4788 30.8343 19.6945C30.8343 22.9131 31.7169 25.8137 33.3255 27.8731C35.0588 30.0831 37.5412 31.2573 40.47 31.2573C43.411 31.2573 45.8858 30.0831 47.6146 27.8731C49.2234 25.8137 50.1058 22.9131 50.1058 19.6945C50.1057 16.4788 49.2234 13.5729 47.6146 11.5159C45.8858 9.31171 43.411 8.13161 40.47 8.13161ZM241.128 8.17861C239.641 8.17861 238.259 8.45188 237.086 8.97767C235.938 9.49521 234.918 10.2744 234.125 11.2808C232.547 13.2562 231.633 16.1888 231.633 19.7415C231.633 23.6955 232.77 26.7126 234.83 28.7192C237.003 30.8403 239.772 31.2573 241.692 31.2573C246.683 31.2573 249.131 28.5571 250.153 26.087C250.153 26.087 247.38 24.7239 247.38 24.7239C246.705 26.2278 245.156 28.5311 241.692 28.5311C239.712 28.5311 238.093 27.7206 236.945 26.228C235.835 24.7835 235.212 22.7843 235.206 20.3995C235.206 20.3995 250.435 20.3995 250.435 20.3995C250.435 20.3995 250.435 18.2844 250.435 18.2844C250.435 14.6307 249.462 11.906 247.662 10.2468C246.129 8.83733 243.979 8.17861 241.128 8.17861ZM76.0987 8.22562C72.1745 8.22562 66.604 10.8661 66.604 19.7415C66.604 28.3591 72.1572 31.2573 75.9107 31.2573C78.1014 31.2574 80.0921 30.0437 81.4571 28.2961C81.4571 28.2961 81.6451 28.2021 81.6451 28.2021C81.6451 28.2021 81.6451 32.4324 81.6451 32.4324C81.6451 35.3994 79.0772 37.2268 76.3337 37.2268C73.6664 37.2268 71.3051 36.7175 69.3772 35.8167C69.3772 35.8167 69.3772 38.8249 69.3772 38.8249C71.0007 39.5208 73.6427 39.953 75.9107 39.953C82.0851 39.953 85.0294 36.5548 85.0294 31.6334C85.0294 31.6334 85.0294 8.64865 85.0294 8.64865H82.4442L81.6921 10.9988C80.4161 9.33612 78.7454 8.22562 76.0987 8.22562ZM98.5664 8.22562C93.6263 8.22562 91.2874 11.1848 90.2938 13.02L93.067 14.4771C93.4562 13.4285 94.8573 10.9988 98.6134 10.9988C101.575 10.9988 103.079 12.306 103.079 14.9001V15.6992C103.079 15.6992 103.103 15.9421 103.032 16.0282C102.922 16.1671 102.61 16.2807 101.857 16.3572C97.7098 16.8199 94.9535 17.501 92.926 18.8014C90.7249 20.2161 89.3537 22.1969 89.3537 24.9119C89.3537 26.8405 90.2876 28.4866 91.5159 29.6592C92.658 30.7391 94.2142 31.301 95.9342 31.3514C99.5954 31.4688 102.005 29.945 103.173 28.1551C103.263 29.3849 103.704 30.0876 104.677 30.5993C105.59 31.0872 107.089 30.9902 107.732 30.8343C107.732 30.8343 107.732 28.4841 107.732 28.4841C106.957 28.4454 106.463 28.0767 106.463 27.121C106.463 27.121 106.463 16.3572 106.463 16.3572C106.463 16.3572 106.463 14.9471 106.463 14.9471C106.463 12.7258 105.591 10.9038 103.925 9.72973C102.551 8.75474 100.631 8.22562 98.5664 8.22562ZM122.491 8.22562C120.227 8.22564 117.911 9.39829 115.958 11.6099V8.64866H112.479V30.9283H115.958C115.958 30.9283 115.958 14.3831 115.958 14.3831C117.141 13.1184 119.794 10.9988 122.209 10.9988C124.63 10.9988 125.687 12.1864 125.687 14.8531C125.687 14.8531 125.687 30.9283 125.687 30.9283H129.166V14.7591C129.166 9.94539 125.742 8.22562 122.491 8.22562ZM185.429 8.22562C180.492 8.22562 178.153 11.1848 177.156 13.02C177.156 13.02 179.93 14.4771 179.93 14.4771C180.32 13.4285 181.72 10.9988 185.476 10.9988C188.437 10.9988 189.941 12.306 189.941 14.9001C189.941 14.9001 189.941 15.6992 189.941 15.6992C189.941 15.6992 189.917 15.9421 189.847 16.0282C189.739 16.1671 189.475 16.2807 188.719 16.3572C184.572 16.8191 181.816 17.501 179.788 18.8014C177.589 20.2161 176.216 22.1969 176.216 24.9119C176.216 26.8405 177.148 28.4859 178.378 29.6592C179.521 30.7391 181.078 31.301 182.797 31.3514C186.455 31.4688 188.868 29.945 190.035 28.1551C190.127 29.3844 190.565 30.0876 191.539 30.5993C192.451 31.0872 193.95 30.9902 194.595 30.8343C194.595 30.8343 194.595 28.4841 194.595 28.4841C193.821 28.4454 193.326 28.0767 193.326 27.121C193.325 27.121 193.326 16.3572 193.326 16.3572C193.325 16.3572 193.326 14.9471 193.326 14.9471C193.325 12.7258 192.408 10.9038 190.74 9.72973C189.365 8.75474 187.492 8.22562 185.429 8.22562ZM209.354 8.22562C207.084 8.22564 204.773 9.39829 202.82 11.6099V8.64866H199.342V30.9283H202.82C202.82 30.9283 202.82 14.3831 202.82 14.3831C204.005 13.1176 206.654 10.9988 209.072 10.9988C211.488 10.9988 212.55 12.1864 212.55 14.8531V30.9283H216.028V14.7591C216.028 9.94539 212.605 8.22562 209.354 8.22562ZM65.2879 8.31962C61.7589 8.31962 59.6674 9.68784 57.8613 12.926V12.691V8.64865H54.3831V30.8813H57.8613C57.8613 30.8813 57.8613 18.2844 57.8613 18.2844C58.72 13.7082 61.1428 11.5629 65.2879 11.5629V8.31962ZM252.785 8.60164L260.541 30.6933C260.541 30.6933 260.541 30.8813 260.541 30.8813C260.077 32.9986 258.737 35.6122 257.532 36.4277C256.469 37.1496 255.317 37.2268 254.43 37.2268C254.002 37.2268 253.118 37.0823 252.738 36.9918C252.738 36.9918 252.738 39.671 252.738 39.671C253.219 39.789 254.33 40 255.041 40C256.699 40 258.097 39.5851 259.271 38.7309C260.678 37.7084 262.236 35.0434 262.985 32.7615C262.985 32.7615 270.74 8.60164 270.74 8.60164H267.356L262.28 25.7109L262.233 26.087L262.139 25.7109L256.169 8.60164H252.785ZM40.47 10.9048C44.2145 10.9048 46.4395 14.1915 46.4395 19.6945C46.4395 25.199 44.2145 28.4841 40.47 28.4841C36.7316 28.4841 34.5006 25.199 34.5006 19.6945C34.5006 14.1915 36.7316 10.9048 40.47 10.9048ZM76.3337 10.9518C78.2961 10.9518 80.0188 11.7997 81.6451 13.819C81.6451 13.819 81.6451 24.4418 81.6451 24.4418C80.7449 27.0041 78.1667 28.4841 76.3337 28.4841C72.7468 28.4841 70.2703 26.2506 70.2703 19.5535C70.2703 13.9221 72.4928 10.9518 76.3337 10.9518ZM241.222 10.9518C245.207 10.9518 246.989 13.0591 247.004 17.6263C247.004 17.6263 235.3 17.6263 235.3 17.6263C235.603 13.0628 237.515 10.9518 241.222 10.9518ZM103.173 18.8014C103.173 18.8014 103.173 24.4418 103.173 24.4418C103.012 26.3892 99.3733 28.746 96.4042 28.5781C94.7661 28.4883 93.1877 27.1692 93.02 25.0059C92.7481 21.3908 95.4645 19.8898 101.528 19.2244C101.949 19.1858 102.766 19.0361 103.173 18.8014ZM190.035 18.8014C190.035 18.8014 190.035 24.4418 190.035 24.4418C189.875 26.3883 186.236 28.746 183.267 28.5781C181.631 28.4876 180.046 27.1685 179.882 25.0059C179.606 21.3908 182.326 19.8898 188.39 19.2244C188.809 19.1858 189.631 19.0361 190.035 18.8014Z" fill="#262d3d"/>
</svg>