<?xml version="1.0" encoding="utf-8"?>
<svg xmlns="http://www.w3.org/2000/svg" fill="none" height="32" viewBox="0 0 152 32" width="152">
<mask height="32" id="mask0_389_17" maskUnits="userSpaceOnUse" style="mask-type:luminance" width="152" x="0" y="0">
<path d="M151.41 0H0V32H151.41V0Z" fill="white"/>
</mask>
<g mask="url(#mask0_389_17)">
<path d="M11.8465 5.01285C10.0639 5.01285 9.5485 5.87621 9.5485 7.78049V10.9394H14.3034L13.8268 16.043H9.55032V31.5311H3.84415V16.043H0V10.9394H3.84415V7.8672C3.84415 2.71928 5.74498 7.99303e-05 11.0485 7.99303e-05C12.1598 -0.00274417 13.2704 0.0692687 14.3735 0.215921V5.0189L11.8465 5.01285Z" fill="#262d3d"/>
<path d="M14.6987 20.5857C14.6987 14.8326 17.1943 10.4996 22.424 10.4996C25.2762 10.4996 27.0181 12.1013 27.8512 14.0902V10.9394H33.3173V31.5311H27.8512V28.4165C27.0588 30.4075 25.2762 31.9648 22.424 31.9648C17.1943 31.9648 14.6987 27.6378 14.6987 21.8788V20.5857ZM20.403 21.9716C20.403 25.0417 21.432 27.075 24.0865 27.075C26.4251 27.075 27.6129 25.2152 27.6129 22.2742V20.2065C27.6129 17.2653 26.4251 15.4055 24.0865 15.4055C21.432 15.4055 20.403 17.4388 20.403 20.509V21.9716Z" fill="#262d3d"/>
<path d="M45.2027 10.5056C47.4195 10.5056 49.5198 11.0261 50.6687 11.8895L49.4015 16.3032C48.213 15.685 46.9144 15.3598 45.598 15.3509C42.5075 15.3509 41.1646 17.2976 41.1646 20.6301V21.8403C41.1646 25.1728 42.5113 27.1194 45.598 27.1194C46.9144 27.1103 48.213 26.7853 49.4015 26.1673L50.6687 30.5789C49.5198 31.4443 47.4213 31.9647 45.2027 31.9647C38.5064 31.9647 35.4565 28.0272 35.4565 21.7113V20.7591C35.4565 14.4432 38.5064 10.5056 45.2027 10.5056Z" fill="#262d3d"/>
<path d="M51.4204 22.0221V20.2065C51.4204 14.3667 54.4702 10.5239 60.6919 10.5239C66.5551 10.5239 69.1301 14.417 69.1301 20.1279V23.4158H57.123C57.243 26.2279 58.3921 27.4826 61.5565 27.4826C63.6974 27.4826 65.9547 27.0065 67.6191 26.2278L68.6628 30.4942C67.1572 31.3617 64.0669 32.0093 61.3348 32.0093C54.1138 32.0072 51.4204 28.0736 51.4204 22.0221ZM57.1249 19.3392H64.0188V18.8206C64.0188 16.5715 63.1875 14.7862 60.6938 14.7862C58.1169 14.7882 57.1249 16.5635 57.1249 19.3311V19.3392Z" fill="#262d3d"/>
<path d="M90.2758 21.8848C90.2758 27.6379 87.7409 31.9709 82.5173 31.9709C79.6647 31.9709 77.6845 30.4136 76.8921 28.4227V31.5372H71.5056V0.599243L77.2098 0.0344238V13.7918C78.0411 11.9764 79.8643 10.5037 82.5188 10.5037C87.7485 10.5037 90.2773 14.8307 90.2773 20.5898L90.2758 21.8848ZM84.5714 20.4567C84.5714 17.5579 83.5428 15.3955 80.8083 15.3955C78.47 15.3955 77.203 17.2109 77.203 20.154V22.3166C77.203 25.2576 78.47 27.0751 80.8083 27.0751C83.5428 27.0751 84.5714 24.9127 84.5714 22.014V20.4567Z" fill="#262d3d"/>
<path d="M92.1843 21.7537V20.7167C92.1843 14.7881 95.2746 10.5056 101.573 10.5056C107.873 10.5056 110.965 14.7881 110.965 20.7167V21.7537C110.965 27.6802 107.875 31.9647 101.576 31.9647C95.2761 31.9647 92.1843 27.6802 92.1843 21.7537ZM105.259 20.2831C105.259 17.5578 104.228 15.3954 101.564 15.3954C98.9005 15.3954 97.8788 17.5578 97.8788 20.2831V22.1874C97.8788 24.9125 98.9097 27.075 101.564 27.075C104.219 27.075 105.259 24.9125 105.259 22.1874V20.2831Z" fill="#262d3d"/>
<path d="M112.863 21.7537V20.7167C112.863 14.7881 115.953 10.5056 122.252 10.5056C128.551 10.5056 131.642 14.7881 131.642 20.7167V21.7537C131.642 27.6802 128.551 31.9647 122.252 31.9647C115.953 31.9647 112.863 27.6802 112.863 21.7537ZM125.937 20.2831C125.937 17.5578 124.907 15.3954 122.252 15.3954C119.598 15.3954 118.569 17.5578 118.569 20.2831V22.1874C118.569 24.9125 119.598 27.075 122.252 27.075C124.907 27.075 125.937 24.9125 125.937 22.1874V20.2831Z" fill="#262d3d"/>
<path d="M139.485 20.7592L145.11 10.9395H151.171L145.269 21.1063L151.41 31.5312H145.348L139.485 21.4452V31.5312H133.779V0.599243L139.485 0.0344238V20.7592Z" fill="#262d3d"/>
</g>
</svg>